<?xml version="1.0" encoding="UTF-8"?>
<svg id="Layer_1" data-name="Layer 1" xmlns="http://www.w3.org/2000/svg" viewBox="0 0 595.28 90.67">
  <defs>
    <style>
      .cls-1 {
        fill: #05a54e;
      }
    </style>
  </defs>
  <g>
    <g>
      <path class="cls-1" d="M103.67,47.37c.64.69.36,1.39-.71,1.62-.93.23-2.43.31-4.36.31s-3.43-.08-4.36-.31c-.93-.08-1.14-.23-1.93-1.16l-14.92-18.28c-.36-.39-.79-.54-1.36-.54h-3.28c-.5,0-.79.31-.79.85v17.74c0,.93-.21,1.31-1.07,1.39-1,.23-2.07.31-3.29.31s-2.36-.08-3.28-.31c-.86-.08-1.07-.46-1.07-1.39V11.34c0-.54-.29-.85-.79-.85h-3.64c-.57,0-.86-.15-.93-.77-.29-1.47-.29-3.7,0-5.17.07-.69.36-.85.93-.85h11.5c1.14,0,1.64.46,1.64,1.7v16.89c0,.54.29.85.79.85h3.5c.64,0,1.07-.15,1.43-.54l14-17.82c.57-.69.79-.93,1.64-1,1.07-.15,2.43-.23,4.07-.23,1.5,0,2.71.08,3.71.23,1,.15,1.21.62.57,1.47l-15.85,19.59c-.14.15-.21.39-.21.62v.39c0,.23.07.46.21.62l17.85,20.91Z"/>
      <path class="cls-1" d="M110.24,34.95c-.5,0-.71.23-.71.62,0,5.09,3.86,7.64,11.57,7.64,2,0,3.86-.23,5.57-.54l2-.46c.93-.23,2.93-.93,3-.93.71-.23,1.14,0,1.21.62.21,1.62.29,3.16.14,4.63-.07.85-.14,1.08-.79,1.31-.93.39-2.57.85-4.78,1.23-2.21.46-4.57.69-7,.69-11.35,0-19.64-4.32-19.64-17.82,0-11.65,6-17.9,17.49-17.9,10.85,0,17.21,5.25,17.21,16.43,0,1.47-.07,2.55-.14,3.39-.07.93-.36,1.08-1.28,1.08h-23.85ZM110.17,29.16h16.21c.43,0,.64-.23.64-.62,0-5.48-3-8.41-8.64-8.41s-8.64,2.78-8.85,8.41c0,.54.07.62.64.62Z"/>
      <path class="cls-1" d="M164.37,14.04c8.64,0,12.57,4.17,12.57,13.35v14.27c0,.54.21.77.64.77h2.29c.64,0,.93.15,1,.77.21,1.23.21,3.86,0,5.01-.07.69-.36.85-1,.85h-4.36c-5.14,0-6.93-1.23-6.93-6.71v-12.88c0-6.25-1.79-8.72-7.14-8.72s-8.21,3.09-8.21,9.18v17.9c0,.85-.14,1.16-.93,1.23-.93.15-2,.23-3.21.23s-2.28-.08-3.21-.23c-.79-.08-.93-.39-.93-1.23v-25.84c0-.46-.21-.69-.71-.69h-3c-.64,0-.93-.15-1-.85-.21-1.16-.21-3.78,0-5.01.07-.62.36-.77,1-.77h9.57c.79,0,1.21.31,1.29.93l.36,2.55c.07.31.21.46.57.46h.29c.29,0,.5-.08.71-.31,2.71-2.85,6.14-4.24,10.35-4.24Z"/>
      <path class="cls-1" d="M195.15,34.95c-.5,0-.71.23-.71.62,0,5.09,3.86,7.64,11.57,7.64,2,0,3.86-.23,5.57-.54l2-.46c.93-.23,2.93-.93,3-.93.71-.23,1.14,0,1.21.62.21,1.62.29,3.16.14,4.63-.07.85-.14,1.08-.79,1.31-.93.39-2.57.85-4.78,1.23-2.21.46-4.57.69-7,.69-11.35,0-19.64-4.32-19.64-17.82,0-11.65,6-17.9,17.49-17.9,10.85,0,17.21,5.25,17.21,16.43,0,1.47-.07,2.55-.14,3.39-.07.93-.36,1.08-1.28,1.08h-23.85ZM195.08,29.16h16.21c.43,0,.64-.23.64-.62,0-5.48-3-8.41-8.64-8.41s-8.64,2.78-8.85,8.41c0,.54.07.62.64.62Z"/>
      <path class="cls-1" d="M227.86,7.33c0-.46-.21-.69-.64-.69h-3.07c-.57,0-.86-.15-.93-.85-.21-1.16-.21-3.78,0-5.01.07-.62.36-.77.93-.77h10.43c1.21,0,1.64.31,1.64,1.62v40.04c0,.54.21.77.64.77h2.28c.64,0,.93.15,1,.77.21,1.23.21,3.86,0,5.01-.07.69-.36.85-1,.85h-4.36c-5.14,0-6.93-1.23-6.93-6.71V7.33Z"/>
      <path class="cls-1" d="M245.07,46.75c-.07-1.93,0-3.47.21-4.63.07-.62.43-.85,1.07-.62,5.21,1.47,9.64,2.16,13.28,2.16,4.21,0,7.93-.23,7.93-4.01,0-2.7-1.43-3.55-7.35-4.47-8.71-1.39-14.92-2.78-15-10.8,0-6.87,5.28-10.34,15.92-10.34,2.36,0,4.78.23,7.28.62,2.57.39,4.28.77,5.07,1,.64.23.79.46.86,1.08.07,1.85,0,3.32-.21,4.47-.14.54-.5.69-1.07.54-4.78-1.16-8.71-1.77-11.78-1.77-3.93,0-7.5.39-7.5,3.63,0,1.39.64,2.39,1.93,2.93.79.39,2.86.77,6.21,1.31.14.08.29.08.43.08,3.93.62,6.07,1.08,8.57,2.24,3.5,1.54,5.28,4.01,5.28,8.79,0,9.03-8.64,10.88-16.35,10.88-2.64,0-5.36-.23-8.07-.69-2.71-.46-4.64-.93-5.86-1.31-.64-.23-.86-.46-.86-1.08Z"/>
    </g>
    <g>
      <path d="M331.19,26.07c0,.23.14.39.43.46.07,0,.14,0,.29.08,2.07.46,8.21,2.08,8.21,10.26,0,4.24-1.64,7.33-4,9.18-1.21.85-2.71,1.62-4.64,2.16-3.71,1-7.28,1.39-12.35,1.39-7.07,0-12.28-.31-15.71-.85-1.14-.23-1.57-.62-1.57-1.93V11.34c0-.54-.29-.85-.78-.85h-3.64c-.57,0-.86-.15-.93-.77-.29-1.47-.29-3.7,0-5.17.07-.69.36-.85.93-.85h4.43c6.21-.15,11.78-.23,16.85-.23,1.64,0,3.07,0,4.21.08,2.36,0,5.64.39,7.64,1.08,4.43,1.39,7.57,4.32,7.57,10.72,0,3.63-1.14,5.55-2.43,7.1-1.5,1.39-2.86,2.01-4.07,2.47-.29.08-.43.23-.43.46v.69ZM311.34,9.95c-.57.08-.79.31-.79,1v11.42c0,.54.29.85.79.85h7.78c7.5,0,10.5-1.47,10.5-6.79s-3-6.79-10.5-6.79c-3.86,0-6.43.08-7.78.31ZM331.26,36.41c0-5.17-2.79-7.02-10.78-7.02h-9.14c-.5,0-.79.31-.79.85v11.65c0,.69.14.93.79,1,1.5.23,4.57.39,9.14.39,8,0,10.78-1.85,10.78-6.87Z"/>
      <path d="M370.75,47.52c-1.57,1.16-3.93,2.16-7.57,2.16-8.57,0-12.85-4.32-12.85-14.5v-13.19c0-.46-.21-.69-.64-.69h-3.07c-.57,0-.86-.15-.93-.85-.21-1.16-.21-3.78,0-5.01.07-.62.36-.77.93-.77h10.43c1.21,0,1.64.31,1.64,1.62v17.97c0,6.25,1.71,8.64,7.07,8.64,5.64,0,8-3.24,8-10.26V15.89c0-.69.21-1.08.86-1.16,1.71-.39,4.78-.39,6.5,0,.79.08.93.46.93,1.16v25.77c0,.54.21.77.71.77h2.29c.57,0,.86.15.93.77.21,1.23.21,3.86,0,5.01-.07.69-.36.85-.93.85h-8.93c-.64,0-1.07-.31-1.21-1l-.43-2.24c-.07-.31-.21-.46-.57-.46h-.29c-.36,0-.64.08-.86.31-.64.69-.79.93-2,1.85Z"/>
      <path d="M412.89,21.45c-6.35,0-9.35,2.85-9.35,11.19v15.2c0,.85-.14,1.16-.93,1.23-.93.15-2,.23-3.21.23s-2.28-.08-3.21-.23c-.79-.08-.93-.39-.93-1.23v-25.84c0-.46-.21-.69-.71-.69h-3c-.64,0-.93-.15-1-.85-.21-1.16-.21-3.78,0-5.01.07-.62.36-.77,1-.77h9.57c.79,0,1.21.31,1.29.93l.36,2.55c.07.31.21.46.57.46h.29c.29,0,.5-.08.71-.31,2.36-2.85,5.43-4.24,9.21-4.24,1,0,1.86.08,2.5.15.64.08.86.31.86.93.21,1.93.14,3.78-.07,5.55-.07.85-.43.93-1.28.85-1.29-.08-2.14-.08-2.64-.08Z"/>
      <path d="M427.32,34.95c-.5,0-.71.23-.71.62,0,5.09,3.86,7.64,11.57,7.64,2,0,3.86-.23,5.57-.54l2-.46c.93-.23,2.93-.93,3-.93.71-.23,1.14,0,1.21.62.21,1.62.29,3.16.14,4.63-.07.85-.14,1.08-.79,1.31-.93.39-2.57.85-4.78,1.23-2.21.46-4.57.69-7,.69-11.35,0-19.64-4.32-19.64-17.82,0-11.65,6-17.9,17.49-17.9,10.85,0,17.21,5.25,17.21,16.43,0,1.47-.07,2.55-.14,3.39-.07.93-.36,1.08-1.29,1.08h-23.85ZM427.24,29.16h16.21c.43,0,.64-.23.64-.62,0-5.48-3-8.41-8.64-8.41s-8.64,2.78-8.85,8.41c0,.54.07.62.64.62Z"/>
      <path d="M486.01,49.06c-.64,0-1.07-.31-1.21-1l-.43-2.24c-.07-.31-.21-.46-.57-.46h-.36c-.29,0-.57.08-.79.31-2.93,2.7-6.57,4.09-11,4.09-7.93,0-12.85-3.24-12.85-10.88,0-8.95,6.28-10.8,15.78-10.8h8.07c.5,0,.71-.23.71-.77,0-5.63-3.93-6.94-9.71-6.94-2.78,0-6.28.46-10.35,1.47-.64.15-1-.08-1.14-.62-.21-1-.29-2.47-.29-4.24,0-1,.07-1.16.86-1.47,3.07-1,7.14-1.47,12.21-1.47,11.64,0,16.49,4.32,16.49,15.35v12.27c0,.54.21.77.71.77h2.28c.57,0,.86.15.93.77.21,1.23.21,3.86,0,5.01-.07.69-.36.85-.93.85h-8.43ZM474.95,33.56c-5.36,0-7.57.93-7.57,4.86,0,4.17,3.14,5.01,7.14,5.01,5.93,0,8.85-3.01,8.85-9.1,0-.54-.21-.77-.71-.77h-7.71Z"/>
      <path d="M522.22,47.52c-1.57,1.16-3.93,2.16-7.57,2.16-8.57,0-12.85-4.32-12.85-14.5v-13.19c0-.46-.21-.69-.64-.69h-3.07c-.57,0-.86-.15-.93-.85-.21-1.16-.21-3.78,0-5.01.07-.62.36-.77.93-.77h10.43c1.21,0,1.64.31,1.64,1.62v17.97c0,6.25,1.71,8.64,7.07,8.64,5.64,0,8-3.24,8-10.26V15.89c0-.69.21-1.08.86-1.16,1.71-.39,4.78-.39,6.5,0,.79.08.93.46.93,1.16v25.77c0,.54.21.77.71.77h2.29c.57,0,.86.15.93.77.21,1.23.21,3.86,0,5.01-.07.69-.36.85-.93.85h-8.93c-.64,0-1.07-.31-1.21-1l-.43-2.24c-.07-.31-.21-.46-.57-.46h-.29c-.36,0-.64.08-.86.31-.64.69-.79.93-2,1.85Z"/>
    </g>
  </g>
  <g>
    <g>
      <path class="cls-1" d="M105.89,69.06c0-.14-.08-.22-.21-.22h-.96c-.15,0-.23-.04-.25-.2-.08-.39-.08-.98,0-1.37.02-.18.09-.22.25-.22h1.17c1.42-.04,2.85-.06,4.27-.06,3.23,0,5.4.57,5.4,3.81,0,2.08-1.28,3.12-2.19,3.4-.08.02-.11.08-.11.14,0,.04.02.08.06.12l2.85,4.14c.13.16.11.37-.13.43-.25.04-.59.06-1.06.06-.43,0-.77-.02-1.06-.06-.25-.06-.3-.08-.43-.27l-2.43-3.69c-.09-.14-.23-.2-.42-.2-.25,0-.68,0-1.26-.02s-.93-.04-.98-.04c-.13,0-.19.08-.19.22v3.61c0,.24-.06.35-.28.37-.26.06-.55.08-.87.08s-.62-.02-.87-.08c-.23-.02-.28-.12-.28-.37v-9.58ZM108.4,68.75c-.17.02-.21.08-.21.27v3.79c0,.18.04.24.21.26.34.06.94.08,1.79.08,1.66,0,3.02-.27,3.02-2.24-.02-2-1.34-2.24-3.02-2.24-.85,0-1.45.02-1.79.08Z"/>
      <path class="cls-1" d="M128.11,67.49c0-.33.13-.45.43-.45h8.21c.17,0,.25.04.26.22.06.39.06.98,0,1.37-.02.16-.09.2-.26.2h-6.13c-.13,0-.21.08-.21.22v2.69c0,.14.08.22.21.22h3.94c.15,0,.23.04.25.22.08.39.08.98,0,1.37-.02.16-.09.2-.25.2h-3.94c-.13,0-.21.08-.21.22v3.02c0,.14.08.22.21.22h6.4c.15,0,.23.04.25.2.08.39.08.98,0,1.37-.02.18-.09.22-.25.22h-8.47c-.3,0-.43-.12-.43-.45v-11.09Z"/>
      <path class="cls-1" d="M149.82,69.06c0-.14-.08-.22-.21-.22h-.96c-.15,0-.23-.04-.25-.2-.08-.39-.08-.98,0-1.37.02-.18.09-.22.25-.22h1.17c1.68-.04,3.19-.06,4.53-.06,1.66,0,2.85.16,3.96.73,1.6.79,2.51,2.41,2.51,5.36,0,2.55-.66,4.02-1.81,4.93-1.19.9-2.74,1.14-4.77,1.16-1.79,0-3.13-.06-4.02-.2-.3-.06-.4-.16-.4-.49v-9.42ZM152.12,77.11c0,.16.08.24.21.27.36.06,1.02.1,1.98.1,2.91,0,4.19-1,4.19-4.4s-1.28-4.42-4.19-4.42c-.96,0-1.62.04-1.98.1-.13.02-.21.1-.21.27v8.09Z"/>
      <path class="cls-1" d="M172.68,67.49c0-.33.13-.45.43-.45h8.21c.17,0,.25.04.26.22.06.39.06.98,0,1.37-.02.16-.09.2-.26.2h-6.13c-.13,0-.21.08-.21.22v2.69c0,.14.08.22.21.22h3.94c.15,0,.23.04.25.22.08.39.08.98,0,1.37-.02.16-.09.2-.25.2h-3.94c-.13,0-.21.08-.21.22v3.02c0,.14.08.22.21.22h6.4c.15,0,.23.04.25.2.08.39.08.98,0,1.37-.02.18-.09.22-.25.22h-8.47c-.3,0-.43-.12-.43-.45v-11.09Z"/>
      <path class="cls-1" d="M197.35,68.69c-1.74,0-2.6.49-2.6,1.49,0,.59.21.92.7,1.14.3.14.43.18.89.29l1.26.22,1.09.22c.6.1,1.36.33,1.81.57,1,.47,1.62,1.37,1.62,2.94,0,2.45-1.75,3.67-5.27,3.67-.81,0-1.64-.06-2.49-.2s-1.43-.24-1.76-.35c-.21-.08-.25-.12-.26-.37-.04-.51-.02-.96.06-1.35.02-.18.13-.24.32-.2,1.6.41,3.06.61,4.36.61,1.79,0,2.7-.55,2.7-1.63,0-.55-.19-.94-.59-1.16-.38-.22-1.15-.45-2.34-.65l-1.19-.22c-.66-.16-1.45-.41-1.96-.73-.77-.57-1.26-1.28-1.26-2.61,0-2.32,1.66-3.49,4.96-3.49.77,0,1.51.06,2.25.18.74.1,1.26.22,1.6.35.21.06.25.12.26.35.06.43.04.86-.06,1.24-.06.22-.11.27-.32.2-1.42-.35-2.68-.51-3.79-.51Z"/>
      <path class="cls-1" d="M217.29,77.01c0,.14.08.22.21.22h1.21c.15,0,.23.04.25.2.08.39.08.98,0,1.37-.02.18-.09.22-.25.22h-5.13c-.15,0-.23-.04-.25-.22-.08-.39-.08-.98,0-1.37.02-.16.09-.2.25-.2h1.21c.13,0,.21-.08.21-.22v-7.95c0-.14-.08-.22-.21-.22h-1.21c-.15,0-.23-.04-.25-.2-.08-.39-.08-.98,0-1.37.02-.18.09-.22.25-.22h5.13c.15,0,.23.04.25.22.08.39.08.98,0,1.37-.02.16-.09.2-.25.2h-1.21c-.13,0-.21.08-.21.22v7.95Z"/>
      <path class="cls-1" d="M240.83,78.72c0,.18-.09.29-.26.31-.3.06-1.04.04-1.36.02-.13-.02-.21-.1-.26-.2l-.13-.33c-.02-.06-.08-.1-.15-.1h-.13c-.06,0-.13.02-.19.06-.53.35-1.53.73-2.66.73-3.94,0-5.61-1.94-5.61-6.16s2.1-6.18,6.34-6.18c1.72,0,3.25.31,3.91.55.21.06.25.12.26.35.02.43,0,.86-.06,1.24-.06.24-.19.27-.36.18-.09,0-.64-.16-1.02-.24-.57-.12-1.62-.29-2.62-.29-3,0-4.11,1.33-4.11,4.42s1,4.34,3.59,4.34c.85,0,1.62-.14,2.32-.45.17-.06.21-.12.21-.35v-3.08c0-.24.06-.31.28-.37.25-.04.55-.06.87-.06s.6.02.87.06c.23.06.28.12.28.37v5.16Z"/>
      <path class="cls-1" d="M253.53,67.49c0-.33.13-.45.43-.45h2.7c.36,0,.47.06.6.31l4.32,9.01c.08.1.08.12.21.12h.17c.13,0,.15,0,.15-.14v-8.97c0-.24.02-.31.23-.33.4-.08,1.23-.08,1.6,0,.23.02.25.08.25.33v11.21c0,.33-.13.45-.43.45h-2.7c-.36,0-.47-.06-.6-.31l-4.32-9.01c-.08-.1-.08-.12-.21-.12h-.17c-.13,0-.15,0-.15.14v8.97c0,.24-.02.29-.23.35-.4.06-1.23.06-1.6,0-.23-.06-.25-.1-.25-.35v-11.21Z"/>
      <path class="cls-1" d="M280.34,77.01c0,.14.08.22.21.22h1.21c.15,0,.23.04.25.2.08.39.08.98,0,1.37-.02.18-.09.22-.25.22h-5.13c-.15,0-.23-.04-.25-.22-.08-.39-.08-.98,0-1.37.02-.16.09-.2.25-.2h1.21c.13,0,.21-.08.21-.22v-7.95c0-.14-.08-.22-.21-.22h-1.21c-.15,0-.23-.04-.25-.2-.08-.39-.08-.98,0-1.37.02-.18.09-.22.25-.22h5.13c.15,0,.23.04.25.22.08.39.08.98,0,1.37-.02.16-.09.2-.25.2h-1.21c-.13,0-.21.08-.21.22v7.95Z"/>
      <path class="cls-1" d="M294.18,67.49c0-.33.13-.45.43-.45h2.7c.36,0,.47.06.6.31l4.32,9.01c.08.1.08.12.21.12h.17c.13,0,.15,0,.15-.14v-8.97c0-.24.02-.31.23-.33.4-.08,1.23-.08,1.6,0,.23.02.25.08.25.33v11.21c0,.33-.13.45-.43.45h-2.7c-.36,0-.47-.06-.6-.31l-4.32-9.01c-.08-.1-.08-.12-.21-.12h-.17c-.13,0-.15,0-.15.14v8.97c0,.24-.02.29-.23.35-.4.06-1.23.06-1.6,0-.23-.06-.25-.1-.25-.35v-11.21Z"/>
      <path class="cls-1" d="M327.81,78.72c0,.18-.09.29-.26.31-.3.06-1.04.04-1.36.02-.13-.02-.21-.1-.26-.2l-.13-.33c-.02-.06-.08-.1-.15-.1h-.13c-.06,0-.13.02-.19.06-.53.35-1.53.73-2.66.73-3.94,0-5.61-1.94-5.61-6.16s2.1-6.18,6.34-6.18c1.72,0,3.25.31,3.91.55.21.06.25.12.26.35.02.43,0,.86-.06,1.24-.06.24-.19.27-.36.18-.09,0-.64-.16-1.02-.24-.57-.12-1.62-.29-2.62-.29-3,0-4.11,1.33-4.11,4.42s1,4.34,3.59,4.34c.85,0,1.62-.14,2.32-.45.17-.06.21-.12.21-.35v-3.08c0-.24.06-.31.28-.37.25-.04.55-.06.87-.06s.6.02.87.06c.23.06.28.12.28.37v5.16Z"/>
      <path class="cls-1" d="M353.07,67.49c0-.33.13-.45.43-.45h8.21c.17,0,.25.04.26.22.06.39.06.98,0,1.37-.02.16-.09.2-.26.2h-6.13c-.13,0-.21.08-.21.22v3.18c0,.14.08.22.21.22h4.08c.17,0,.25.04.26.2.06.39.06.98,0,1.37-.02.18-.09.22-.26.22h-4.08c-.13,0-.21.08-.21.22v4.16c0,.24-.06.35-.28.37-.26.06-.55.08-.87.08s-.62-.02-.87-.08c-.23-.02-.28-.12-.28-.37v-11.15Z"/>
      <path class="cls-1" d="M376.44,77.01c0,.14.08.22.21.22h1.21c.15,0,.23.04.25.2.08.39.08.98,0,1.37-.02.18-.09.22-.25.22h-5.13c-.15,0-.23-.04-.25-.22-.08-.39-.08-.98,0-1.37.02-.16.09-.2.25-.2h1.21c.13,0,.21-.08.21-.22v-7.95c0-.14-.08-.22-.21-.22h-1.21c-.15,0-.23-.04-.25-.2-.08-.39-.08-.98,0-1.37.02-.18.09-.22.25-.22h5.13c.15,0,.23.04.25.22.08.39.08.98,0,1.37-.02.16-.09.2-.25.2h-1.21c-.13,0-.21.08-.21.22v7.95Z"/>
      <path class="cls-1" d="M390.28,67.49c0-.33.13-.45.43-.45h2.7c.36,0,.47.06.6.31l4.32,9.01c.08.1.08.12.21.12h.17c.13,0,.15,0,.15-.14v-8.97c0-.24.02-.31.23-.33.4-.08,1.23-.08,1.6,0,.23.02.25.08.25.33v11.21c0,.33-.13.45-.43.45h-2.7c-.36,0-.47-.06-.6-.31l-4.32-9.01c-.08-.1-.08-.12-.21-.12h-.17c-.13,0-.15,0-.15.14v8.97c0,.24-.02.29-.23.35-.4.06-1.23.06-1.6,0-.23-.06-.25-.1-.25-.35v-11.21Z"/>
      <path class="cls-1" d="M422.65,79.05c-.25-.02-.34-.08-.42-.31l-.85-2.36c-.06-.14-.15-.2-.3-.18-.7.1-1.57.16-2.57.16s-1.87-.06-2.57-.16c-.15-.02-.25.04-.3.18l-.85,2.36c-.08.22-.15.29-.4.31-.19.02-.43.04-.75.04-.42,0-.76-.02-1.02-.06-.15-.02-.23-.1-.23-.22,0-.06.02-.12.04-.2l4.3-11.19c.09-.26.25-.37.57-.37h2.53c.3,0,.45.1.55.37l4.3,11.19c.04.08.06.14.06.2,0,.12-.08.2-.25.22-.26.04-.6.06-1,.06s-.68-.02-.85-.04ZM418.46,68.87c-.09,0-.17.04-.19.14l-1.89,5.24s-.04.08-.04.12c0,.08.06.14.17.16.45.08,1.11.12,2,.12s1.57-.04,2-.12c.11-.02.17-.08.17-.16,0-.02,0-.06-.02-.12l-1.89-5.24c-.04-.1-.09-.14-.19-.14h-.13Z"/>
      <path class="cls-1" d="M436.21,67.49c0-.33.13-.45.43-.45h2.7c.36,0,.47.06.6.31l4.32,9.01c.08.1.08.12.21.12h.17c.13,0,.15,0,.15-.14v-8.97c0-.24.02-.31.23-.33.4-.08,1.23-.08,1.6,0,.23.02.25.08.25.33v11.21c0,.33-.13.45-.43.45h-2.7c-.36,0-.47-.06-.6-.31l-4.32-9.01c-.08-.1-.08-.12-.21-.12h-.17c-.13,0-.15,0-.15.14v8.97c0,.24-.02.29-.23.35-.4.06-1.23.06-1.6,0-.23-.06-.25-.1-.25-.35v-11.21Z"/>
      <path class="cls-1" d="M467.22,70.81v-1.77c0-.12-.06-.2-.17-.24-.38-.14-1-.2-1.85-.2-2.62,0-3.78,1.41-3.78,4.4s1.21,4.36,4.23,4.36c.62,0,1.26-.08,1.85-.18l.7-.16c.38-.08.96-.27.98-.29.21-.06.34-.04.36.2.08.43.09.88.04,1.35-.02.16-.08.22-.25.29-1.11.43-2.38.65-3.76.65-4.32,0-6.49-1.83-6.49-6.18s2.04-6.16,6.21-6.16c1.45,0,2.72.18,3.79.53.23.08.32.2.32.51v2.9c0,.22-.04.31-.25.33-.51.1-1.17.1-1.68,0-.23-.02-.26-.1-.26-.33Z"/>
      <path class="cls-1" d="M482,67.49c0-.33.13-.45.43-.45h8.21c.17,0,.25.04.26.22.06.39.06.98,0,1.37-.02.16-.09.2-.26.2h-6.13c-.13,0-.21.08-.21.22v2.69c0,.14.08.22.21.22h3.94c.15,0,.23.04.25.22.08.39.08.98,0,1.37-.02.16-.09.2-.25.2h-3.94c-.13,0-.21.08-.21.22v3.02c0,.14.08.22.21.22h6.4c.15,0,.23.04.25.2.08.39.08.98,0,1.37-.02.18-.09.22-.25.22h-8.47c-.3,0-.43-.12-.43-.45v-11.09Z"/>
    </g>
    <rect class="cls-1" x="87.8" y="72.99" width="8.59" height="1.1"/>
    <rect class="cls-1" x="498.89" y="72.99" width="8.59" height="1.1"/>
  </g>
</svg>