<?xml version="1.0" encoding="UTF-8"?>
<svg id="Layer_1" data-name="Layer 1" xmlns="http://www.w3.org/2000/svg" viewBox="0 0 483.91 85.23">
  <defs>
    <style>
      .cls-1 {
        fill: #fff;
      }

      .cls-2 {
        fill: #05a54e;
      }
    </style>
  </defs>
  <g>
    <g>
      <g>
        <path class="cls-2" d="M44.92,55.3c-2.21,0-3.67-.1-4.68-.33-1.47-.15-2.14-.68-3.13-1.84l-14.79-18.11h-2.04s0,16.59,0,16.59c0,2.59-1.65,3.23-2.74,3.36-1.03.23-2.18.33-3.62.33s-2.66-.11-3.63-.33c-1.09-.14-2.72-.78-2.72-3.36V16.49h-2.43c-1.61,0-2.69-.92-2.9-2.46-.32-1.69-.32-4.09,0-5.79.2-1.6,1.28-2.54,2.91-2.54h11.5c2.28,0,3.64,1.38,3.64,3.7v15.74s2.31,0,2.32,0l13.82-17.6c.78-.94,1.43-1.6,2.98-1.75,1.17-.16,2.58-.24,4.31-.24,1.59,0,2.91.08,4.02.25,1.55.24,2.19,1.06,2.45,1.7.26.65.37,1.68-.59,2.95l-15.52,19.19,17.45,20.43c.73.79,1.01,1.84.7,2.82-.33,1.03-1.24,1.78-2.51,2.05-.96.24-2.45.35-4.78.35Z"/>
        <path class="cls-1" d="M43.7,7.55c1.5,0,2.71.08,3.71.23,1,.15,1.21.62.57,1.47l-15.85,19.59c-.14.15-.21.39-.21.62v.39c0,.23.07.46.21.62l17.85,20.91c.64.69.36,1.39-.71,1.62-.93.23-2.43.31-4.36.31s-3.43-.08-4.36-.31c-.93-.08-1.14-.23-1.93-1.16l-14.92-18.28c-.36-.39-.79-.54-1.36-.54h-3.28c-.5,0-.79.31-.79.85v17.74c0,.93-.21,1.31-1.07,1.39-1,.23-2.07.31-3.29.31s-2.36-.08-3.28-.31c-.86-.08-1.07-.46-1.07-1.39V15.34c0-.54-.29-.85-.79-.85h-3.64c-.57,0-.86-.15-.93-.77-.29-1.47-.29-3.7,0-5.17.07-.69.36-.85.93-.85h11.5c1.14,0,1.64.46,1.64,1.7v16.89c0,.54.29.85.79.85h3.5c.64,0,1.07-.15,1.43-.54l14-17.82c.57-.69.79-.93,1.64-1,1.07-.15,2.43-.23,4.07-.23M43.7,3.55c-1.8,0-3.29.08-4.55.26-2.27.24-3.35,1.33-4.25,2.43l-.03.04-.03.04-12.56,16v-12.91c0-3.41-2.27-5.7-5.64-5.7H5.14C2.55,3.7.61,5.39.26,7.93c-.35,1.92-.35,4.52,0,6.43.37,2.48,2.31,4.13,4.88,4.13h.43v33.11c0,3.46,2.19,5,4.36,5.33,1.11.25,2.39.37,4,.37s2.81-.12,3.97-.36c2.18-.32,4.39-1.86,4.39-5.33v-13.47l13.25,16.24.02.03.02.03c1.22,1.44,2.3,2.28,4.33,2.52,1.16.25,2.69.35,5.01.35,2.49,0,4.07-.12,5.27-.41,1.96-.44,3.39-1.68,3.93-3.39.51-1.63.1-3.4-1.12-4.76l-16.33-19.12,14.43-17.84.04-.05.04-.05c1.61-2.12,1.22-3.99.85-4.91-.37-.92-1.39-2.52-4-2.93-1.21-.19-2.63-.28-4.32-.28h0Z"/>
      </g>
      <g>
        <path class="cls-2" d="M66.77,55.76c-14.36,0-21.64-6.67-21.64-19.82s6.92-19.9,19.49-19.9,19.21,6.55,19.21,18.43c0,1.58-.08,2.73-.15,3.56-.15,1.93-1.25,2.91-3.28,2.91h-22.45c.39,1.82,2.08,4.25,9.45,4.25,1.63,0,3.29-.16,5.22-.51l1.9-.44c.49-.12,1.52-.46,2.13-.66.37-.12.6-.2.77-.24.35-.11.7-.16,1.04-.16,1.43,0,2.54,1.02,2.71,2.48.25,1.86.3,3.53.15,5.05-.07.85-.19,2.31-2.1,3-1.11.46-2.96.95-5.12,1.32-2.27.48-4.76.72-7.34.72ZM71.26,31.16c-.42-3.42-2.54-5.03-6.56-5.03s-6.18,1.52-6.72,5.02h13.28Z"/>
        <path class="cls-1" d="M64.63,18.04c10.85,0,17.21,5.25,17.21,16.43,0,1.47-.07,2.55-.14,3.39-.07.93-.36,1.08-1.28,1.08h-23.85c-.5,0-.71.23-.71.62,0,5.09,3.86,7.64,11.57,7.64,2,0,3.86-.23,5.57-.54l2-.46c.93-.23,2.93-.93,3-.93.18-.06.35-.09.49-.09.42,0,.67.25.72.7.21,1.62.29,3.16.14,4.63-.07.85-.14,1.08-.79,1.31-.93.39-2.57.85-4.78,1.23-2.21.46-4.57.69-7,.69-11.35,0-19.64-4.32-19.64-17.82,0-11.65,6-17.9,17.49-17.9M56.49,33.16h16.21c.43,0,.64-.23.64-.62,0-5.48-3-8.41-8.64-8.41s-8.64,2.78-8.85,8.41c0,.54.07.62.64.62M64.63,14.04c-13.66,0-21.49,7.98-21.49,21.9,0,9.95,4.1,21.82,23.64,21.82,2.69,0,5.3-.26,7.75-.76,2.22-.39,4.17-.9,5.49-1.44,2.99-1.13,3.24-3.77,3.31-4.68.16-1.67.11-3.47-.16-5.49-.13-1.02-.54-1.92-1.16-2.62,2.15-.52,3.49-2.16,3.68-4.59.07-.84.15-2.05.15-3.7,0-12.98-7.73-20.43-21.21-20.43h0ZM60.95,29.16c.75-.74,1.94-1.03,3.75-1.03s2.96.36,3.65,1.03h-7.4ZM63.78,42.95h7.11c-1.24.17-2.37.25-3.48.25-1.48,0-2.67-.09-3.63-.25h0Z"/>
      </g>
      <g>
        <path class="cls-2" d="M95.41,55.3c-1.29,0-2.46-.08-3.48-.25-1.23-.14-2.66-.82-2.66-3.22v-24.54h-1.71c-2.37,0-2.87-1.72-2.98-2.56-.24-1.39-.24-4.16,0-5.6.09-.66.57-2.47,2.98-2.47h9.57c2.19,0,3.13,1.45,3.27,2.7l.02.14c2.83-2.3,6.27-3.45,10.28-3.45,9.8,0,14.57,5.02,14.57,15.35v13.04h.93c2.41,0,2.89,1.81,2.98,2.47.24,1.45.24,4.22,0,5.6-.11.83-.61,2.56-2.98,2.56h-4.36c-5.51,0-8.93-1.46-8.93-8.71v-12.88c0-6.05-1.65-6.72-5.14-6.72-3.07,0-6.21.85-6.21,7.18v17.9c0,2.4-1.43,3.08-2.66,3.22-1.02.17-2.19.25-3.48.25Z"/>
        <path class="cls-1" d="M110.69,18.04c8.64,0,12.57,4.17,12.57,13.35v14.27c0,.54.21.77.64.77h2.29c.64,0,.93.15,1,.77.21,1.23.21,3.86,0,5.01-.07.69-.36.85-1,.85h-4.36c-5.14,0-6.93-1.23-6.93-6.71v-12.88c0-6.25-1.79-8.72-7.14-8.72s-8.21,3.09-8.21,9.18v17.9c0,.85-.14,1.16-.93,1.23-.93.15-2,.23-3.21.23s-2.28-.08-3.21-.23c-.79-.08-.93-.39-.93-1.23v-25.84c0-.46-.21-.69-.71-.69h-3c-.64,0-.93-.15-1-.85-.21-1.16-.21-3.78,0-5.01.07-.62.36-.77,1-.77h9.57c.79,0,1.21.31,1.29.93l.36,2.55c.07.31.21.46.57.46h.29c.29,0,.5-.08.71-.31,2.71-2.85,6.14-4.24,10.35-4.24M110.69,14.04c-3.54,0-6.69.81-9.42,2.42-.95-1.13-2.41-1.8-4.15-1.8h-9.57c-2.67,0-4.61,1.64-4.96,4.18-.27,1.66-.27,4.57,0,6.18.33,2.5,2.13,4.15,4.67,4.26v22.54c0,3.43,2.23,4.93,4.38,5.2,1.11.18,2.38.27,3.77.27s2.65-.09,3.77-.27c2.15-.27,4.38-1.77,4.38-5.2v-17.9c0-4.8,1.83-5.18,4.21-5.18s3.14,0,3.14,4.72v12.88c0,9.49,5.84,10.71,10.93,10.71h4.36c2.69,0,4.62-1.67,4.96-4.27.27-1.61.27-4.52,0-6.18-.3-2.19-1.78-3.71-3.88-4.09v-11.14c0-14.34-9.01-17.35-16.57-17.35h0Z"/>
      </g>
      <g>
        <path class="cls-2" d="M151.68,55.76c-14.36,0-21.64-6.67-21.64-19.82s6.92-19.9,19.49-19.9,19.21,6.55,19.21,18.43c0,1.58-.08,2.73-.15,3.56-.15,1.93-1.25,2.91-3.28,2.91h-22.45c.39,1.82,2.08,4.25,9.45,4.25,1.63,0,3.29-.16,5.22-.51l1.9-.44c.49-.12,1.52-.46,2.13-.66.37-.12.6-.2.77-.24.35-.11.7-.16,1.04-.16,1.43,0,2.54,1.02,2.71,2.48.25,1.86.3,3.52.15,5.05-.07.85-.19,2.31-2.1,3-1.11.46-2.96.95-5.12,1.32-2.27.48-4.76.72-7.34.72ZM156.17,31.16c-.42-3.42-2.54-5.03-6.56-5.03s-6.18,1.52-6.72,5.02h13.28Z"/>
        <path class="cls-1" d="M149.54,18.04c10.85,0,17.21,5.25,17.21,16.43,0,1.47-.07,2.55-.14,3.39-.07.93-.36,1.08-1.28,1.08h-23.85c-.5,0-.71.23-.71.62,0,5.09,3.86,7.64,11.57,7.64,2,0,3.86-.23,5.57-.54l2-.46c.93-.23,2.93-.93,3-.93.18-.06.35-.09.49-.09.42,0,.67.25.72.7.21,1.62.29,3.16.14,4.63-.07.85-.14,1.08-.79,1.31-.93.39-2.57.85-4.78,1.23-2.21.46-4.57.69-7,.69-11.35,0-19.64-4.32-19.64-17.82,0-11.65,6-17.9,17.49-17.9M141.4,33.16h16.21c.43,0,.64-.23.64-.62,0-5.48-3-8.41-8.64-8.41s-8.64,2.78-8.85,8.41c0,.54.07.62.64.62M149.54,14.04c-13.66,0-21.49,7.98-21.49,21.9,0,9.95,4.1,21.82,23.64,21.82,2.69,0,5.3-.26,7.75-.76,2.22-.39,4.17-.9,5.49-1.44,2.99-1.13,3.23-3.77,3.31-4.68.16-1.67.11-3.47-.16-5.49-.13-1.02-.54-1.92-1.16-2.62,2.15-.52,3.49-2.16,3.68-4.59.07-.84.15-2.05.15-3.7,0-12.98-7.73-20.43-21.21-20.43h0ZM145.86,29.16c.75-.74,1.94-1.03,3.75-1.03s2.96.36,3.65,1.03h-7.4ZM148.69,42.95h7.11c-1.24.17-2.37.25-3.48.25-1.48,0-2.67-.09-3.63-.25h0Z"/>
      </g>
      <g>
        <path class="cls-2" d="M181.1,55.06c-5.51,0-8.93-1.46-8.93-8.71V12.63h-1.71c-1.63,0-2.71-.95-2.91-2.56-.24-1.39-.24-4.15,0-5.6.2-1.55,1.29-2.48,2.91-2.48h10.43c3.01,0,3.64,1.97,3.64,3.62v38.81h.93c2.41,0,2.89,1.81,2.98,2.47.24,1.45.24,4.22,0,5.6-.11.83-.61,2.56-2.98,2.56h-4.36Z"/>
        <path class="cls-1" d="M180.89,4c1.21,0,1.64.31,1.64,1.62v40.04c0,.54.21.77.64.77h2.28c.64,0,.93.15,1,.77.21,1.23.21,3.86,0,5.01-.07.69-.36.85-1,.85h-4.36c-5.14,0-6.93-1.23-6.93-6.71V11.33c0-.46-.21-.69-.64-.69h-3.07c-.57,0-.86-.15-.93-.85-.21-1.16-.21-3.78,0-5.01.07-.62.36-.77.93-.77h10.43M180.89,0h-10.43c-2.59,0-4.54,1.68-4.89,4.18-.27,1.66-.27,4.57,0,6.18.33,2.46,2.14,4.14,4.6,4.26v31.72c0,9.49,5.84,10.71,10.93,10.71h4.36c2.69,0,4.62-1.67,4.96-4.27.27-1.61.27-4.52,0-6.18-.3-2.19-1.78-3.71-3.88-4.09V5.62c0-3.47-2.16-5.62-5.64-5.62h0Z"/>
      </g>
      <g>
        <path class="cls-2" d="M206.17,55.84c-2.77,0-5.59-.24-8.4-.72-2.53-.43-4.65-.91-6.12-1.38-1.52-.54-2.25-1.54-2.25-2.99-.08-1.99,0-3.63.24-4.93.23-1.66,1.47-2.4,2.61-2.4.33,0,.68.06,1.03.18,4.9,1.37,9.17,2.07,12.68,2.07,5.53,0,5.93-.76,5.93-2.01,0-1.04,0-1.61-5.66-2.5-7.78-1.24-16.6-2.65-16.69-12.76,0-5.65,3.11-12.35,17.92-12.35,2.31,0,4.8.21,7.59.64,2.2.33,4.19.73,5.33,1.06l.11.04c1.34.48,2,1.32,2.17,2.73v.15c.09,2,0,3.61-.23,4.92l-.03.15c-.34,1.29-1.35,2.09-2.63,2.09-.29,0-.59-.04-.9-.13-4.73-1.14-8.43-1.71-11.26-1.71-5.5,0-5.5,1.02-5.5,1.63s.17.86.7,1.09l.11.05c.68.33,4.29.91,5.65,1.13l.34.05.03.02h.05c4.1.65,6.39,1.15,9.1,2.4,4.39,1.93,6.44,5.31,6.44,10.61,0,5.87-3.18,12.88-18.35,12.88Z"/>
        <path class="cls-1" d="M207.45,18.04c2.36,0,4.78.23,7.28.62,2.57.39,4.28.77,5.07,1,.64.23.79.46.86,1.08.07,1.85,0,3.32-.21,4.47-.11.41-.34.6-.69.6-.11,0-.24-.02-.38-.06-4.78-1.16-8.71-1.77-11.78-1.77-3.93,0-7.5.39-7.5,3.63,0,1.39.64,2.39,1.93,2.93.79.39,2.86.77,6.21,1.31.14.08.29.08.43.08,3.93.62,6.07,1.08,8.57,2.24,3.5,1.54,5.28,4.01,5.28,8.79,0,9.03-8.64,10.88-16.35,10.88-2.64,0-5.36-.23-8.07-.69-2.71-.46-4.64-.93-5.86-1.31-.64-.23-.86-.46-.86-1.08-.07-1.93,0-3.47.21-4.63.05-.46.26-.71.63-.71.13,0,.27.03.44.09,5.21,1.47,9.64,2.16,13.28,2.16,4.21,0,7.93-.23,7.93-4.01,0-2.7-1.43-3.55-7.35-4.47-8.71-1.39-14.92-2.78-15-10.8,0-6.87,5.28-10.34,15.92-10.34M207.45,14.04c-17.34,0-19.92,8.98-19.92,14.34.11,11.84,10.66,13.52,18.37,14.75,1.11.17,1.94.33,2.58.47-.96.07-2.02.07-2.52.07-3.33,0-7.4-.67-12.1-1.98-.54-.18-1.08-.26-1.62-.26-2.37,0-4.24,1.67-4.59,4.08-.25,1.43-.34,3.18-.26,5.35.02,1.35.52,3.68,3.5,4.75l.07.03.07.02c1.57.5,3.78,1,6.39,1.44,2.92.5,5.86.75,8.74.75,17.71,0,20.35-9.32,20.35-14.88,0-6.09-2.5-10.16-7.64-12.44-2.65-1.22-4.98-1.79-8.58-2.38,2.24.24,4.95.74,8.1,1.5.46.12.91.18,1.36.18,2.2,0,3.99-1.4,4.56-3.57l.04-.15.03-.15c.27-1.46.36-3.21.28-5.36v-.15s-.02-.15-.02-.15c-.25-2.17-1.42-3.65-3.48-4.38l-.11-.04-.11-.03c-1.24-.36-3.28-.77-5.61-1.12-2.88-.44-5.46-.66-7.88-.66h0Z"/>
      </g>
    </g>
    <g>
      <path class="cls-1" d="M277.51,30.07c0,.23.14.39.43.46.07,0,.14,0,.29.08,2.07.46,8.21,2.08,8.21,10.26,0,4.24-1.64,7.33-4,9.18-1.21.85-2.71,1.62-4.64,2.16-3.71,1-7.28,1.39-12.35,1.39-7.07,0-12.28-.31-15.71-.85-1.14-.23-1.57-.62-1.57-1.93V15.34c0-.54-.29-.85-.78-.85h-3.64c-.57,0-.86-.15-.93-.77-.29-1.47-.29-3.7,0-5.17.07-.69.36-.85.93-.85h4.43c6.21-.15,11.78-.23,16.85-.23,1.64,0,3.07,0,4.21.08,2.36,0,5.64.39,7.64,1.08,4.43,1.39,7.57,4.32,7.57,10.72,0,3.63-1.14,5.55-2.43,7.1-1.5,1.39-2.86,2.01-4.07,2.47-.29.08-.43.23-.43.46v.69ZM257.66,13.95c-.57.08-.79.31-.79,1v11.42c0,.54.29.85.79.85h7.78c7.5,0,10.5-1.47,10.5-6.79s-3-6.79-10.5-6.79c-3.86,0-6.43.08-7.78.31ZM277.58,40.41c0-5.17-2.79-7.02-10.78-7.02h-9.14c-.5,0-.79.31-.79.85v11.65c0,.69.14.93.79,1,1.5.23,4.57.39,9.14.39,8,0,10.78-1.85,10.78-6.87Z"/>
      <path class="cls-1" d="M317.07,51.52c-1.57,1.16-3.93,2.16-7.57,2.16-8.57,0-12.85-4.32-12.85-14.5v-13.19c0-.46-.21-.69-.64-.69h-3.07c-.57,0-.86-.15-.93-.85-.21-1.16-.21-3.78,0-5.01.07-.62.36-.77.93-.77h10.43c1.21,0,1.64.31,1.64,1.62v17.97c0,6.25,1.71,8.64,7.07,8.64,5.64,0,8-3.24,8-10.26v-16.74c0-.69.21-1.08.86-1.16,1.71-.39,4.78-.39,6.5,0,.79.08.93.46.93,1.16v25.77c0,.54.21.77.71.77h2.29c.57,0,.86.15.93.77.21,1.23.21,3.86,0,5.01-.07.69-.36.85-.93.85h-8.93c-.64,0-1.07-.31-1.21-1l-.43-2.24c-.07-.31-.21-.46-.57-.46h-.29c-.36,0-.64.08-.86.31-.64.69-.79.93-2,1.85Z"/>
      <path class="cls-1" d="M359.2,25.45c-6.35,0-9.35,2.85-9.35,11.19v15.2c0,.85-.14,1.16-.93,1.23-.93.15-2,.23-3.21.23s-2.28-.08-3.21-.23c-.79-.08-.93-.39-.93-1.23v-25.84c0-.46-.21-.69-.71-.69h-3c-.64,0-.93-.15-1-.85-.21-1.16-.21-3.78,0-5.01.07-.62.36-.77,1-.77h9.57c.79,0,1.21.31,1.29.93l.36,2.55c.07.31.21.46.57.46h.29c.29,0,.5-.08.71-.31,2.36-2.85,5.43-4.24,9.21-4.24,1,0,1.86.08,2.5.15.64.08.86.31.86.93.21,1.93.14,3.78-.07,5.55-.07.85-.43.93-1.28.85-1.29-.08-2.14-.08-2.64-.08Z"/>
      <path class="cls-1" d="M373.63,38.95c-.5,0-.71.23-.71.62,0,5.09,3.86,7.64,11.57,7.64,2,0,3.86-.23,5.57-.54l2-.46c.93-.23,2.93-.93,3-.93.71-.23,1.14,0,1.21.62.21,1.62.29,3.16.14,4.63-.07.85-.14,1.08-.79,1.31-.93.39-2.57.85-4.78,1.23-2.21.46-4.57.69-7,.69-11.35,0-19.64-4.32-19.64-17.82,0-11.65,6-17.9,17.49-17.9,10.85,0,17.21,5.25,17.21,16.43,0,1.47-.07,2.55-.14,3.39-.07.93-.36,1.08-1.29,1.08h-23.85ZM373.56,33.16h16.21c.43,0,.64-.23.64-.62,0-5.48-3-8.41-8.64-8.41s-8.64,2.78-8.85,8.41c0,.54.07.62.64.62Z"/>
      <path class="cls-1" d="M432.33,53.06c-.64,0-1.07-.31-1.21-1l-.43-2.24c-.07-.31-.21-.46-.57-.46h-.36c-.29,0-.57.08-.79.31-2.93,2.7-6.57,4.09-11,4.09-7.93,0-12.85-3.24-12.85-10.88,0-8.95,6.28-10.8,15.78-10.8h8.07c.5,0,.71-.23.71-.77,0-5.63-3.93-6.94-9.71-6.94-2.78,0-6.28.46-10.35,1.47-.64.15-1-.08-1.14-.62-.21-1-.29-2.47-.29-4.24,0-1,.07-1.16.86-1.47,3.07-1,7.14-1.47,12.21-1.47,11.64,0,16.49,4.32,16.49,15.35v12.27c0,.54.21.77.71.77h2.28c.57,0,.86.15.93.77.21,1.23.21,3.86,0,5.01-.07.69-.36.85-.93.85h-8.43ZM421.26,37.56c-5.36,0-7.57.93-7.57,4.86,0,4.17,3.14,5.01,7.14,5.01,5.93,0,8.85-3.01,8.85-9.1,0-.54-.21-.77-.71-.77h-7.71Z"/>
      <path class="cls-1" d="M468.54,51.52c-1.57,1.16-3.93,2.16-7.57,2.16-8.57,0-12.85-4.32-12.85-14.5v-13.19c0-.46-.21-.69-.64-.69h-3.07c-.57,0-.86-.15-.93-.85-.21-1.16-.21-3.78,0-5.01.07-.62.36-.77.93-.77h10.43c1.21,0,1.64.31,1.64,1.62v17.97c0,6.25,1.71,8.64,7.07,8.64,5.64,0,8-3.24,8-10.26v-16.74c0-.69.21-1.08.86-1.16,1.71-.39,4.78-.39,6.5,0,.79.08.93.46.93,1.16v25.77c0,.54.21.77.71.77h2.29c.57,0,.86.15.93.77.21,1.23.21,3.86,0,5.01-.07.69-.36.85-.93.85h-8.93c-.64,0-1.07-.31-1.21-1l-.43-2.24c-.07-.31-.21-.46-.57-.46h-.29c-.36,0-.64.08-.86.31-.64.69-.79.93-2,1.85Z"/>
    </g>
  </g>
  <g>
    <g>
      <g>
        <path class="cls-2" d="M61.29,84.09c-.48,0-.87-.02-1.2-.07l-.1-.02c-.37-.09-.68-.2-1-.65l-2.3-3.48c-.26,0-.61,0-1.04-.02h-.14s0,2.79,0,2.79c0,.88-.56,1.27-1.11,1.35-.3.07-.63.09-1.04.09s-.76-.03-1.05-.1c-.55-.08-1.1-.47-1.1-1.35v-8.81h-.17c-.68,0-1.16-.43-1.24-1.09-.09-.44-.09-1.16.01-1.67.06-.59.54-1.03,1.23-1.03h1.17c1.4-.04,2.84-.06,4.27-.06,2.08,0,6.4,0,6.4,4.81,0,1.82-.85,3.15-1.9,3.87l2.32,3.37c.24.29.33.75.19,1.15-.14.41-.47.7-.91.81-.38.07-.77.09-1.3.09ZM55.51,76.14c.4.02.81.02,1,.02,1.93,0,2.02-.43,2.02-1.24,0-.92-.18-1.24-2.02-1.24-.19,0-.61,0-1,.01v2.45Z"/>
        <path class="cls-1" d="M56.47,70.98c3.23,0,5.4.57,5.4,3.81,0,2.08-1.28,3.12-2.19,3.4-.08.02-.11.08-.11.14,0,.04.02.08.06.12l2.85,4.14c.13.16.11.37-.13.43-.25.04-.59.06-1.06.06-.43,0-.77-.02-1.06-.06-.25-.06-.3-.08-.43-.27l-2.43-3.69c-.09-.14-.23-.2-.42-.2-.25,0-.68,0-1.26-.02-.59-.02-.93-.04-.98-.04-.13,0-.19.08-.19.22v3.61c0,.24-.06.35-.28.37-.26.06-.55.08-.87.08s-.62-.02-.87-.08c-.23-.02-.28-.12-.28-.37v-9.58c0-.14-.08-.22-.21-.22h-.96c-.15,0-.23-.04-.25-.2-.08-.39-.08-.98,0-1.37.02-.18.09-.22.25-.22h1.17c1.42-.04,2.85-.06,4.27-.06M56.51,77.15c1.66,0,3.02-.27,3.02-2.24-.02-2-1.34-2.24-3.02-2.24-.85,0-1.45.02-1.79.08-.17.02-.21.08-.21.27v3.79c0,.18.04.24.21.26.34.06.94.08,1.79.08M56.47,68.98c-1.43,0-2.88.02-4.29.06h-1.14c-1.16,0-2.06.78-2.22,1.91-.11.61-.11,1.4,0,2,.13.82.66,1.46,1.39,1.73v7.95c0,1.41.93,2.17,1.91,2.33.36.08.75.11,1.24.11s.86-.04,1.22-.11c.99-.16,1.93-.92,1.93-2.34v-1.22l1.62,2.45.02.03.02.03c.5.69,1.05.9,1.57,1.04l.1.02h.1c.39.07.81.1,1.34.1.58,0,1.02-.03,1.39-.09h.08s.08-.03.08-.03c.77-.19,1.37-.74,1.61-1.46.23-.7.1-1.47-.35-2.08l-1.79-2.6c.91-.93,1.56-2.3,1.56-4.04,0-5.81-5.37-5.81-7.4-5.81h0ZM56.51,74.67h0c.56,0,.86.04,1.01.07,0,.05,0,.11.01.19,0,.06,0,.11,0,.15-.15.03-.44.08-1.01.08h0v-.48h0Z"/>
      </g>
      <g>
        <path class="cls-2" d="M74.86,84.03c-.86,0-1.43-.58-1.43-1.45v-11.09c0-.87.58-1.45,1.43-1.45h8.21c.7,0,1.19.44,1.26,1.12.07.44.07,1.12,0,1.61-.07.63-.57,1.06-1.25,1.06h-5.34v1.14h3.15c.68,0,1.17.44,1.24,1.12.09.43.09,1.15-.01,1.66-.07.59-.55,1.01-1.23,1.01h-3.15v1.46h5.61c.68,0,1.16.43,1.24,1.09.09.44.09,1.16-.01,1.67-.06.59-.54,1.03-1.23,1.03h-8.47Z"/>
        <path class="cls-1" d="M83.07,71.04c.17,0,.25.04.26.22.06.39.06.98,0,1.37-.02.16-.09.2-.26.2h-6.13c-.13,0-.21.08-.21.22v2.69c0,.14.08.22.21.22h3.94c.15,0,.23.04.25.22.08.39.08.98,0,1.37-.02.16-.09.2-.25.2h-3.94c-.13,0-.21.08-.21.22v3.02c0,.14.08.22.21.22h6.4c.15,0,.23.04.25.2.08.39.08.98,0,1.37-.02.18-.09.22-.25.22h-8.47c-.3,0-.43-.12-.43-.45v-11.09c0-.33.13-.45.43-.45h8.21M83.07,69.04h-8.21c-1.41,0-2.43,1.03-2.43,2.45v11.09c0,1.42,1.02,2.45,2.43,2.45h8.47c1.16,0,2.06-.78,2.22-1.91.11-.61.11-1.39,0-2-.17-1.11-1.07-1.88-2.22-1.88h-.96c.38-.33.65-.8.73-1.35.11-.61.11-1.39,0-2-.06-.4-.21-.76-.43-1.05h.4c1.18,0,2.1-.79,2.25-1.94.08-.57.08-1.32,0-1.89-.14-1.16-1.06-1.97-2.25-1.97h0Z"/>
      </g>
      <g>
        <path class="cls-2" d="M100.55,84.17c-1.93,0-3.26-.07-4.18-.22-.81-.16-1.24-.68-1.24-1.48v-8.64h-.17c-.68,0-1.16-.43-1.24-1.09-.09-.44-.09-1.16.01-1.67.06-.59.54-1.03,1.23-1.03h1.17c1.66-.04,3.18-.06,4.53-.06,1.44,0,2.97.1,4.42.84,2.05,1.02,3.05,3.06,3.05,6.25,0,2.71-.7,4.53-2.19,5.72-1.57,1.18-3.51,1.36-5.39,1.38h-.01ZM99.44,80.45c.28.02.67.03,1.19.03,2.25,0,3.19-.47,3.19-3.4s-.94-3.42-3.19-3.42c-.52,0-.91.01-1.19.03v6.77Z"/>
        <path class="cls-1" d="M100.67,70.98c1.66,0,2.85.16,3.96.73,1.6.79,2.51,2.41,2.51,5.36,0,2.55-.66,4.02-1.81,4.93-1.19.9-2.74,1.14-4.77,1.16-1.79,0-3.13-.06-4.02-.2-.3-.06-.4-.16-.4-.49v-9.42c0-.14-.08-.22-.21-.22h-.96c-.15,0-.23-.04-.25-.2-.08-.39-.08-.98,0-1.37.02-.18.09-.22.25-.22h1.17c1.68-.04,3.19-.06,4.53-.06M100.63,81.48c2.91,0,4.19-1,4.19-4.4s-1.28-4.42-4.19-4.42c-.96,0-1.62.04-1.98.1-.13.02-.21.1-.21.27v8.09c0,.16.08.24.21.27.36.06,1.02.1,1.98.1M100.67,68.98c-1.35,0-2.89.02-4.58.06h-1.12c-1.16,0-2.06.78-2.22,1.91-.11.61-.11,1.4,0,2,.13.83.66,1.46,1.39,1.73v7.79c0,1.26.77,2.2,2,2.45h.04s.04.01.04.01c.97.16,2.35.23,4.34.23,2.06-.02,4.2-.22,5.98-1.57l.02-.02.02-.02c1.73-1.38,2.57-3.5,2.57-6.5,0-3.56-1.22-5.96-3.62-7.15-1.61-.83-3.29-.94-4.85-.94h0ZM100.44,74.65c.06,0,.12,0,.19,0,1.77,0,2.19.09,2.19,2.42s-.42,2.4-2.19,2.4c-.07,0-.13,0-.19,0v-4.83h0Z"/>
      </g>
      <g>
        <path class="cls-2" d="M119.43,84.03c-.86,0-1.43-.58-1.43-1.45v-11.09c0-.87.58-1.45,1.43-1.45h8.21c.69,0,1.19.44,1.26,1.12.07.45.07,1.13,0,1.61-.07.63-.57,1.06-1.25,1.06h-5.34v1.14h3.15c.68,0,1.17.44,1.24,1.12.09.43.09,1.15-.01,1.66-.07.59-.55,1.01-1.23,1.01h-3.15v1.46h5.61c.68,0,1.16.43,1.24,1.09.09.44.09,1.16-.01,1.67-.06.59-.54,1.03-1.23,1.03h-8.47Z"/>
        <path class="cls-1" d="M127.64,71.04c.17,0,.25.04.26.22.06.39.06.98,0,1.37-.02.16-.09.2-.26.2h-6.13c-.13,0-.21.08-.21.22v2.69c0,.14.08.22.21.22h3.94c.15,0,.23.04.25.22.08.39.08.98,0,1.37-.02.16-.09.2-.25.2h-3.94c-.13,0-.21.08-.21.22v3.02c0,.14.08.22.21.22h6.4c.15,0,.23.04.25.2.08.39.08.98,0,1.37-.02.18-.09.22-.25.22h-8.47c-.3,0-.43-.12-.43-.45v-11.09c0-.33.13-.45.43-.45h8.21M127.64,69.04h-8.21c-1.41,0-2.43,1.03-2.43,2.45v11.09c0,1.42,1.02,2.45,2.43,2.45h8.47c1.16,0,2.06-.78,2.22-1.91.11-.61.11-1.39,0-2-.17-1.11-1.07-1.88-2.22-1.88h-.96c.38-.33.65-.8.73-1.35.11-.61.11-1.39,0-2-.06-.4-.21-.76-.43-1.05h.4c1.18,0,2.1-.79,2.25-1.94.08-.57.08-1.32,0-1.89-.14-1.16-1.06-1.97-2.25-1.97h0Z"/>
      </g>
      <g>
        <path class="cls-2" d="M143.18,84.23c-.91,0-1.8-.07-2.66-.22-.89-.15-1.5-.26-1.89-.38-.64-.25-.91-.62-.96-1.24-.04-.6-.02-1.14.07-1.61.06-.57.55-1.03,1.2-1.03.1,0,.2.01.31.03,1.56.4,2.94.59,4.15.59.78,0,1.7-.11,1.7-.63,0-.25-.06-.28-.08-.29-.12-.07-.57-.29-2.02-.54l-1.2-.23c-1.04-.25-1.8-.54-2.32-.87-1.2-.88-1.73-1.96-1.73-3.45,0-1.67.77-4.49,5.96-4.49.83,0,1.61.06,2.41.2.73.1,1.34.24,1.78.39.54.16.87.57.92,1.21.07.5.04,1.06-.08,1.56-.23.92-.94.99-1.15.99-.13,0-.27-.02-.42-.07-1.26-.31-2.46-.47-3.51-.47-.48,0-1.6.05-1.6.49,0,.11.01.16.02.18,0,0,.04.02.1.05.22.11.27.13.69.22l1.22.21,1.12.23c.55.09,1.45.33,2.09.67.95.45,2.15,1.49,2.15,3.82,0,2.13-1.09,4.67-6.27,4.67Z"/>
        <path class="cls-1" d="M143.73,70.88c.77,0,1.51.06,2.25.18.74.1,1.26.22,1.6.35.21.06.25.12.26.35.06.43.04.86-.06,1.24-.04.16-.08.23-.18.23-.04,0-.08,0-.14-.03-1.42-.35-2.68-.51-3.79-.51-1.74,0-2.6.49-2.6,1.49,0,.59.21.92.7,1.14.3.14.43.18.89.29l1.26.22,1.09.22c.6.1,1.36.33,1.81.57,1,.47,1.62,1.37,1.62,2.94,0,2.45-1.75,3.67-5.27,3.67-.81,0-1.64-.06-2.49-.2-.85-.14-1.43-.24-1.76-.35-.21-.08-.25-.12-.26-.37-.04-.51-.02-.96.06-1.35.02-.15.09-.22.22-.22.03,0,.07,0,.1.01,1.6.41,3.06.61,4.36.61,1.79,0,2.7-.55,2.7-1.63,0-.55-.19-.94-.59-1.16-.38-.22-1.15-.45-2.34-.65l-1.19-.22c-.66-.16-1.45-.41-1.96-.73-.77-.57-1.26-1.28-1.26-2.61,0-2.32,1.66-3.49,4.96-3.49M143.73,68.88c-6.29,0-6.96,3.84-6.96,5.49,0,1.81.68,3.19,2.08,4.22l.05.04.06.04c.05.03.11.07.17.1-.06,0-.11,0-.17,0-1.12,0-2.03.79-2.19,1.9-.1.54-.12,1.15-.08,1.81.08,1,.6,1.72,1.53,2.08l.06.03.07.02c.45.14,1.07.25,2.03.41.92.15,1.86.23,2.82.23,6.56,0,7.27-3.96,7.27-5.67,0-2.5-1.21-3.79-2.21-4.43.62-.19,1.25-.69,1.49-1.64.15-.62.19-1.29.1-1.95-.14-1.33-1.04-1.84-1.62-2.02-.49-.17-1.14-.31-1.94-.43-.84-.14-1.68-.21-2.55-.21h0Z"/>
      </g>
      <g>
        <path class="cls-2" d="M159.89,84.03c-.68,0-1.17-.44-1.24-1.12-.09-.43-.09-1.15.01-1.66.07-.59.55-1.01,1.23-1.01h.42v-6.4h-.42c-.68,0-1.16-.43-1.24-1.09-.09-.44-.09-1.16.01-1.67.06-.59.54-1.03,1.23-1.03h5.13c.68,0,1.17.44,1.24,1.12.09.42.09,1.14-.01,1.66-.06.58-.55,1.01-1.23,1.01h-.42v6.4h.42c.68,0,1.16.43,1.24,1.09.09.44.09,1.16-.01,1.67-.06.59-.54,1.03-1.23,1.03h-5.13Z"/>
        <path class="cls-1" d="M165.02,71.04c.15,0,.23.04.25.22.08.39.08.98,0,1.37-.02.16-.09.2-.25.2h-1.21c-.13,0-.21.08-.21.22v7.95c0,.14.08.22.21.22h1.21c.15,0,.23.04.25.2.08.39.08.98,0,1.37-.02.18-.09.22-.25.22h-5.13c-.15,0-.23-.04-.25-.22-.08-.39-.08-.98,0-1.37.02-.16.09-.2.25-.2h1.21c.13,0,.21-.08.21-.22v-7.95c0-.14-.08-.22-.21-.22h-1.21c-.15,0-.23-.04-.25-.2-.08-.39-.08-.98,0-1.37.02-.18.09-.22.25-.22h5.13M165.02,69.04h-5.13c-1.16,0-2.06.78-2.22,1.91-.11.61-.11,1.39,0,2,.14.91.78,1.6,1.63,1.81v4.54c-.86.21-1.49.9-1.64,1.81-.11.61-.11,1.39,0,2,.16,1.13,1.06,1.91,2.22,1.91h5.13c1.16,0,2.06-.78,2.22-1.91.11-.61.11-1.39,0-2-.14-.92-.78-1.6-1.64-1.81v-4.54c.86-.21,1.49-.9,1.63-1.81.11-.61.11-1.39,0-2-.16-1.13-1.06-1.91-2.22-1.91h0Z"/>
      </g>
      <g>
        <path class="cls-2" d="M181.99,84.21c-4.45,0-6.61-2.34-6.61-7.16s2.47-7.18,7.34-7.18c1.79,0,3.46.32,4.25.61.54.16.86.56.91,1.2.02.53,0,1.03-.06,1.47-.19.82-.76,1.08-1.19,1.08-.14,0-.28-.02-.42-.07-.11-.02-.25-.06-.44-.11-.17-.04-.36-.09-.52-.13-.56-.12-1.53-.26-2.41-.26-2.39,0-3.11.8-3.11,3.42,0,2.83.87,3.34,2.59,3.34.57,0,1.07-.07,1.53-.22v-2.66c0-.48.18-1.1,1.02-1.33.39-.07.75-.1,1.13-.1s.7.02,1.02.07l.11.02c.84.23,1.02.85,1.02,1.33v5.16c0,.68-.47,1.22-1.15,1.3-.05.01-.28.05-.8.05-.28,0-.57-.01-.75-.02-.25-.04-.58-.13-.85-.41-.69.32-1.61.58-2.61.58Z"/>
        <path class="cls-1" d="M182.73,70.88c1.72,0,3.25.31,3.91.55.21.06.25.12.26.35.02.43,0,.86-.06,1.24-.04.16-.11.23-.2.23-.05,0-.1-.02-.16-.04-.09,0-.64-.16-1.02-.24-.57-.12-1.62-.29-2.62-.29-3,0-4.11,1.33-4.11,4.42s1,4.34,3.59,4.34c.85,0,1.62-.14,2.32-.45.17-.06.21-.12.21-.35v-3.08c0-.24.06-.31.28-.37.25-.04.55-.06.87-.06s.6.02.87.06c.23.06.28.12.28.37v5.16c0,.18-.09.29-.26.31-.15.03-.41.04-.67.04s-.53-.01-.69-.02c-.13-.02-.21-.1-.26-.2l-.13-.33c-.02-.06-.08-.1-.15-.1h-.13c-.06,0-.13.02-.19.06-.53.35-1.53.73-2.66.73-3.94,0-5.61-1.94-5.61-6.16s2.1-6.18,6.34-6.18M182.73,68.88c-5.46,0-8.34,2.83-8.34,8.18,0,6.74,4.14,8.16,7.61,8.16.84,0,1.7-.16,2.48-.43.23.12.48.21.75.25h.09s.09.02.09.02c.19.01.5.02.81.02.43,0,.74-.02,1-.07,1.13-.18,1.93-1.12,1.93-2.28v-5.16c0-1.14-.66-2-1.76-2.3l-.11-.03-.11-.02s-.07-.01-.11-.02c.85-.16,1.52-.82,1.73-1.74l.02-.08v-.08c.09-.51.11-1.07.09-1.62v-.04s0-.04,0-.04c-.11-1.36-1.03-1.88-1.61-2.07-.92-.33-2.67-.66-4.55-.66h0ZM182.31,79.44c-1.06,0-1.59,0-1.59-2.34s.51-2.42,2.11-2.42c.86,0,1.79.15,2.2.24.14.03.32.08.48.12.17.04.3.08.43.11-.42,0-.81.03-1.15.09l-.1.02-.1.03c-1.1.3-1.76,1.16-1.76,2.3v1.85c-.17.02-.34.03-.53.03h0Z"/>
      </g>
      <g>
        <path class="cls-2" d="M200.89,84.09c-.22,0-.64,0-.95-.06l-.1-.02c-.98-.27-.98-1.05-.98-1.31v-11.21c0-.87.58-1.45,1.43-1.45h2.7c.48,0,1.09.09,1.48.83l2.97,6.19v-5.7c0-1.03.71-1.26,1.07-1.32.34-.06.75-.07.97-.07s.62,0,.95.07c.37.05,1.09.28,1.09,1.32v11.21c0,.87-.58,1.45-1.43,1.45h-2.7c-.48,0-1.09-.09-1.48-.83l-2.97-6.19v5.7c0,.25,0,1.03-.94,1.31l-.07.02h-.07c-.32.06-.74.07-.96.07Z"/>
        <path class="cls-1" d="M209.47,70.98c.3,0,.61.02.8.06.23.02.25.08.25.33v11.21c0,.33-.13.45-.43.45h-2.7c-.36,0-.47-.06-.6-.31l-4.32-9.01c-.08-.1-.08-.12-.21-.12h-.17c-.13,0-.15,0-.15.14v8.97c0,.24-.02.29-.23.35-.2.03-.5.05-.81.05s-.61-.02-.8-.05c-.23-.06-.25-.1-.25-.35v-11.21c0-.33.13-.45.43-.45h2.7c.36,0,.47.06.6.31l4.32,9.01c.08.1.08.12.21.12h.17c.13,0,.15,0,.15-.14v-8.97c0-.24.02-.31.23-.33.2-.04.5-.06.81-.06M209.47,68.98c-.31,0-.74.02-1.13.09-.91.14-1.9.81-1.9,2.3v1.3l-1.05-2.18-.02-.04-.02-.04c-.49-.9-1.28-1.36-2.36-1.36h-2.7c-1.41,0-2.43,1.03-2.43,2.45v11.21c0,1.15.63,1.98,1.72,2.28l.1.03.1.02c.37.06.81.07,1.12.07s.74-.01,1.11-.07l.13-.02.13-.04c.5-.15,1.66-.66,1.66-2.26v-1.3l1.05,2.18.02.04.02.04c.49.9,1.28,1.35,2.36,1.35h2.7c1.41,0,2.43-1.03,2.43-2.45v-11.21c0-1.5-1.01-2.17-1.92-2.3-.38-.07-.81-.09-1.12-.09h0Z"/>
      </g>
      <g>
        <path class="cls-2" d="M222.94,84.03c-.68,0-1.17-.44-1.24-1.12-.09-.43-.09-1.15.01-1.66.07-.59.55-1.01,1.23-1.01h.42v-6.4h-.42c-.68,0-1.16-.43-1.24-1.09-.09-.44-.09-1.16.01-1.67.06-.59.54-1.03,1.23-1.03h5.13c.68,0,1.17.44,1.24,1.12.09.42.09,1.14-.01,1.66-.06.58-.56,1.01-1.23,1.01h-.42v6.4h.42c.67,0,1.16.44,1.24,1.09.09.44.09,1.16-.01,1.67-.06.59-.54,1.03-1.23,1.03h-5.13Z"/>
        <path class="cls-1" d="M228.07,71.04c.15,0,.23.04.25.22.08.39.08.98,0,1.37-.02.16-.09.2-.25.2h-1.21c-.13,0-.21.08-.21.22v7.95c0,.14.08.22.21.22h1.21c.15,0,.23.04.25.2.08.39.08.98,0,1.37-.02.18-.09.22-.25.22h-5.13c-.15,0-.23-.04-.25-.22-.08-.39-.08-.98,0-1.37.02-.16.09-.2.25-.2h1.21c.13,0,.21-.08.21-.22v-7.95c0-.14-.08-.22-.21-.22h-1.21c-.15,0-.23-.04-.25-.2-.08-.39-.08-.98,0-1.37.02-.18.09-.22.25-.22h5.13M228.07,69.04h-5.13c-1.16,0-2.06.78-2.22,1.91-.11.61-.11,1.39,0,2,.14.91.78,1.6,1.63,1.81v4.54c-.86.21-1.49.9-1.64,1.81-.11.61-.11,1.39,0,2,.16,1.13,1.06,1.91,2.22,1.91h5.13c1.16,0,2.06-.78,2.22-1.91.11-.61.11-1.39,0-2-.14-.92-.78-1.6-1.64-1.81v-4.54c.86-.21,1.49-.9,1.63-1.81.11-.61.11-1.39,0-2-.16-1.13-1.06-1.91-2.22-1.91h0Z"/>
      </g>
      <g>
        <path class="cls-2" d="M241.53,84.09c-.22,0-.64,0-.95-.06l-.1-.02c-.98-.27-.98-1.05-.98-1.31v-11.21c0-.87.58-1.45,1.43-1.45h2.7c.48,0,1.09.09,1.49.83l2.97,6.19v-5.7c0-1.03.71-1.26,1.07-1.32.34-.06.75-.07.97-.07s.62,0,.95.07c.37.05,1.09.28,1.09,1.32v11.21c0,.87-.58,1.45-1.43,1.45h-2.7c-.48,0-1.09-.09-1.48-.83l-2.97-6.19v5.7c0,.25,0,1.03-.94,1.31l-.07.02h-.07c-.32.06-.74.07-.96.07Z"/>
        <path class="cls-1" d="M250.11,70.98c.3,0,.61.02.79.06.23.02.25.08.25.33v11.21c0,.33-.13.45-.43.45h-2.7c-.36,0-.47-.06-.6-.31l-4.32-9.01c-.08-.1-.08-.12-.21-.12h-.17c-.13,0-.15,0-.15.14v8.97c0,.24-.02.29-.23.35-.2.03-.5.05-.81.05s-.61-.02-.8-.05c-.23-.06-.25-.1-.25-.35v-11.21c0-.33.13-.45.43-.45h2.7c.36,0,.47.06.6.31l4.32,9.01c.08.1.08.12.21.12h.17c.13,0,.15,0,.15-.14v-8.97c0-.24.02-.31.23-.33.2-.04.51-.06.81-.06M250.11,68.98c-.31,0-.74.02-1.13.09-.91.14-1.9.81-1.9,2.3v1.3l-1.05-2.18-.02-.04-.02-.04c-.49-.9-1.28-1.36-2.36-1.36h-2.7c-1.41,0-2.43,1.03-2.43,2.45v11.21c0,1.15.63,1.98,1.72,2.28l.1.03.1.02c.37.06.81.07,1.12.07s.74-.01,1.11-.07l.13-.02.13-.04c.5-.15,1.66-.66,1.66-2.26v-1.3l1.05,2.18.02.04.02.04c.49.9,1.28,1.35,2.36,1.35h2.7c1.41,0,2.43-1.03,2.43-2.45v-11.21c0-1.5-1.01-2.17-1.92-2.3-.38-.07-.81-.09-1.12-.09h0Z"/>
      </g>
      <g>
        <path class="cls-2" d="M268.98,84.21c-4.44,0-6.61-2.34-6.61-7.16s2.47-7.18,7.34-7.18c1.79,0,3.46.32,4.25.61.53.16.86.57.91,1.2.03.53,0,1.02-.06,1.47-.19.82-.76,1.08-1.19,1.08-.14,0-.28-.02-.42-.07-.11-.02-.25-.06-.44-.11-.17-.04-.36-.09-.52-.13-.56-.12-1.53-.26-2.41-.26-2.39,0-3.11.8-3.11,3.42,0,2.83.87,3.34,2.59,3.34.57,0,1.07-.07,1.53-.22v-2.66c0-.48.18-1.1,1.02-1.33.39-.07.75-.1,1.13-.1s.7.02,1.02.07h.06s.05.02.05.02c.84.23,1.02.85,1.02,1.33v5.16c0,.68-.47,1.22-1.14,1.3-.05.01-.28.05-.8.05-.29,0-.57-.01-.75-.02-.26-.04-.58-.13-.85-.41-.69.32-1.61.58-2.61.58Z"/>
        <path class="cls-1" d="M269.71,70.88c1.72,0,3.25.31,3.91.55.21.06.25.12.26.35.02.43,0,.86-.06,1.24-.04.16-.11.23-.2.23-.05,0-.1-.02-.16-.04-.09,0-.64-.16-1.02-.24-.57-.12-1.62-.29-2.62-.29-3,0-4.11,1.33-4.11,4.42s1,4.34,3.59,4.34c.85,0,1.62-.14,2.32-.45.17-.06.21-.12.21-.35v-3.08c0-.24.06-.31.28-.37.25-.04.55-.06.87-.06s.6.02.87.06c.23.06.28.12.28.37v5.16c0,.18-.09.29-.26.31-.15.03-.41.04-.67.04s-.53-.01-.69-.02c-.13-.02-.21-.1-.26-.2l-.13-.33c-.02-.06-.08-.1-.15-.1h-.13c-.06,0-.13.02-.19.06-.53.35-1.53.73-2.66.73-3.94,0-5.61-1.94-5.61-6.16s2.1-6.18,6.34-6.18M269.71,68.88c-5.46,0-8.34,2.83-8.34,8.18,0,6.74,4.14,8.16,7.61,8.16.84,0,1.7-.16,2.48-.43.23.12.48.21.75.25h.09s.09.02.09.02c.19.01.5.02.81.02.43,0,.74-.02,1-.07,1.13-.18,1.93-1.12,1.93-2.28v-5.16c0-1.14-.66-2-1.76-2.3l-.11-.03-.11-.02s-.07-.01-.11-.02c.85-.16,1.52-.82,1.73-1.74l.02-.08v-.08c.09-.51.11-1.07.09-1.62v-.04s0-.04,0-.04c-.11-1.37-1.03-1.88-1.61-2.07-.92-.33-2.67-.66-4.55-.66h0ZM269.3,79.44c-1.06,0-1.59,0-1.59-2.34s.51-2.42,2.11-2.42c.86,0,1.79.15,2.2.24.14.03.32.08.48.12.17.04.3.08.43.11-.42,0-.81.03-1.15.09l-.1.02-.1.03c-1.1.3-1.76,1.16-1.76,2.3v1.85c-.17.02-.34.03-.53.03h0Z"/>
      </g>
      <g>
        <path class="cls-2" d="M300.54,84.09c-.42,0-.76-.03-1.05-.1-.55-.08-1.1-.47-1.1-1.35v-11.15c0-.87.58-1.45,1.43-1.45h8.21c.69,0,1.19.44,1.26,1.12.06.44.06,1.14,0,1.61-.08.64-.57,1.06-1.25,1.06h-5.34v1.63h3.28c.69,0,1.18.43,1.26,1.09.07.45.07,1.15,0,1.62-.06.64-.56,1.08-1.25,1.08h-3.28v3.38c0,.88-.56,1.27-1.11,1.35-.3.07-.63.09-1.04.09Z"/>
        <path class="cls-1" d="M308.03,71.04c.17,0,.25.04.26.22.06.39.06.98,0,1.37-.02.16-.09.2-.26.2h-6.13c-.13,0-.21.08-.21.22v3.18c0,.14.08.22.21.22h4.08c.17,0,.25.04.26.2.06.39.06.98,0,1.37-.02.18-.09.22-.26.22h-4.08c-.13,0-.21.08-.21.22v4.16c0,.24-.06.35-.28.37-.26.06-.55.08-.87.08s-.62-.02-.87-.08c-.23-.02-.28-.12-.28-.37v-11.15c0-.33.13-.45.43-.45h8.21M308.03,69.04h-8.21c-1.41,0-2.43,1.03-2.43,2.45v11.15c0,1.41.93,2.17,1.91,2.33.36.08.75.11,1.24.11s.86-.04,1.22-.11c.99-.16,1.93-.92,1.93-2.34v-2.38h2.28c1.19,0,2.1-.81,2.25-1.97.08-.57.08-1.32,0-1.89-.09-.67-.44-1.23-.96-1.57h.77c1.18,0,2.1-.79,2.25-1.94.08-.57.08-1.32,0-1.89-.14-1.16-1.06-1.97-2.25-1.97h0Z"/>
      </g>
      <g>
        <path class="cls-2" d="M319.04,84.03c-.68,0-1.17-.44-1.24-1.12-.09-.43-.09-1.15.01-1.66.07-.59.55-1.01,1.23-1.01h.42v-6.4h-.42c-.67,0-1.16-.43-1.24-1.08-.09-.44-.09-1.16.01-1.68.06-.59.55-1.03,1.23-1.03h5.13c.68,0,1.17.44,1.24,1.12.09.42.09,1.14-.01,1.66-.06.58-.56,1.01-1.23,1.01h-.42v6.4h.42c.67,0,1.16.44,1.24,1.09.09.44.09,1.16-.01,1.67-.06.59-.54,1.03-1.23,1.03h-5.13Z"/>
        <path class="cls-1" d="M324.17,71.04c.15,0,.23.04.25.22.08.39.08.98,0,1.37-.02.16-.09.2-.25.2h-1.21c-.13,0-.21.08-.21.22v7.95c0,.14.08.22.21.22h1.21c.15,0,.23.04.25.2.08.39.08.98,0,1.37-.02.18-.09.22-.25.22h-5.13c-.15,0-.23-.04-.25-.22-.08-.39-.08-.98,0-1.37.02-.16.09-.2.25-.2h1.21c.13,0,.21-.08.21-.22v-7.95c0-.14-.08-.22-.21-.22h-1.21c-.15,0-.23-.04-.25-.2-.08-.39-.08-.98,0-1.37.02-.18.09-.22.25-.22h5.13M324.17,69.04h-5.13c-1.16,0-2.06.78-2.22,1.91-.11.61-.11,1.39,0,2,.14.91.78,1.6,1.63,1.81v4.54c-.86.21-1.49.9-1.64,1.81-.11.61-.11,1.39,0,2,.16,1.13,1.06,1.91,2.22,1.91h5.13c1.16,0,2.06-.78,2.22-1.91.11-.61.11-1.39,0-2-.14-.92-.78-1.6-1.64-1.81v-4.54c.86-.21,1.49-.9,1.63-1.81.11-.61.11-1.39,0-2-.16-1.13-1.06-1.91-2.22-1.91h0Z"/>
      </g>
      <g>
        <path class="cls-2" d="M337.64,84.09c-.22,0-.64,0-.95-.06l-.1-.02c-.98-.27-.98-1.05-.98-1.31v-11.21c0-.87.58-1.45,1.43-1.45h2.7c.48,0,1.09.09,1.48.83l2.97,6.19v-5.69c0-1.03.71-1.26,1.07-1.32.34-.06.75-.07.97-.07s.62,0,.95.07c.37.05,1.09.28,1.09,1.32v11.21c0,.87-.58,1.45-1.43,1.45h-2.7c-.48,0-1.09-.09-1.48-.83l-2.97-6.19v5.7c0,.25,0,1.03-.94,1.31l-.07.02h-.07c-.32.06-.74.07-.96.07Z"/>
        <path class="cls-1" d="M346.22,70.98c.3,0,.61.02.79.06.23.02.25.08.25.33v11.21c0,.33-.13.45-.43.45h-2.7c-.36,0-.47-.06-.6-.31l-4.32-9.01c-.08-.1-.08-.12-.21-.12h-.17c-.13,0-.15,0-.15.14v8.97c0,.24-.02.29-.23.35-.2.03-.5.05-.81.05s-.61-.02-.8-.05c-.23-.06-.25-.1-.25-.35v-11.21c0-.33.13-.45.43-.45h2.7c.36,0,.47.06.6.31l4.32,9.01c.08.1.08.12.21.12h.17c.13,0,.15,0,.15-.14v-8.97c0-.24.02-.31.23-.33.2-.04.51-.06.81-.06M346.22,68.98c-.31,0-.74.02-1.13.09-.91.14-1.9.81-1.9,2.3v1.3l-1.05-2.18-.02-.04-.02-.04c-.49-.9-1.28-1.36-2.36-1.36h-2.7c-1.41,0-2.43,1.03-2.43,2.45v11.21c0,1.15.63,1.98,1.72,2.28l.1.03.1.02c.37.06.81.07,1.12.07s.74-.01,1.11-.07l.13-.02.13-.04c.5-.15,1.66-.66,1.66-2.26v-1.3l1.05,2.18.02.04.02.04c.49.9,1.28,1.35,2.36,1.35h2.7c1.41,0,2.43-1.03,2.43-2.45v-11.21c0-1.5-1.01-2.17-1.92-2.3-.38-.07-.81-.09-1.12-.09h0Z"/>
      </g>
      <g>
        <path class="cls-2" d="M369.82,84.09c-.45,0-.78-.02-.97-.05-.61-.05-1.04-.38-1.24-.98l-.65-1.81c-.61.07-1.34.1-2.12.1s-1.48-.03-2.12-.1l-.66,1.82c-.2.59-.61.91-1.25.96-.19.02-.47.04-.84.04-.47,0-.86-.02-1.17-.07-.62-.08-1.07-.58-1.07-1.21,0-.17.03-.3.05-.39v-.06s.05-.11.05-.11l4.3-11.19c.13-.36.51-1.01,1.5-1.01h2.53c.72,0,1.25.37,1.49,1.03l4.29,11.17c.04.08.12.29.12.56,0,.64-.46,1.14-1.12,1.22-.28.04-.67.07-1.12.07ZM363.98,77.65c.25.01.54.02.85.02.34,0,.63,0,.87-.02l-.86-2.39-.86,2.39Z"/>
        <path class="cls-1" d="M366.16,71.04c.3,0,.45.1.55.37l4.3,11.19c.04.08.06.14.06.2,0,.12-.08.2-.25.22-.26.04-.6.06-1,.06s-.68-.02-.85-.04c-.25-.02-.34-.08-.42-.31l-.85-2.36c-.05-.12-.13-.19-.25-.19-.02,0-.04,0-.05,0-.7.1-1.57.16-2.57.16s-1.87-.06-2.57-.16c-.02,0-.04,0-.05,0-.12,0-.2.06-.25.19l-.85,2.36c-.08.22-.15.29-.4.31-.19.02-.43.04-.75.04-.42,0-.76-.02-1.02-.06-.15-.02-.23-.1-.23-.22,0-.06.02-.12.04-.2l4.3-11.19c.09-.26.25-.37.57-.37h2.53M364.83,78.66c.89,0,1.57-.04,2-.12.11-.02.17-.08.17-.16,0-.02,0-.06-.02-.12l-1.89-5.24c-.04-.1-.09-.14-.19-.14h-.13c-.09,0-.17.04-.19.14l-1.89,5.24s-.04.08-.04.12c0,.08.06.14.17.16.45.08,1.11.12,2,.12M366.16,69.04h-2.53c-1.15,0-2.07.63-2.45,1.69l-4.29,11.15-.05.13-.03.14c-.03.13-.09.36-.09.65,0,1.12.82,2.05,1.96,2.21.33.05.76.08,1.29.08.42,0,.74-.03.95-.05,1.02-.1,1.77-.68,2.1-1.66l.38-1.06c.45.03.94.04,1.44.04s.98-.01,1.44-.04l.4,1.1c.18.53.7,1.49,2.09,1.62.21.02.56.05,1.06.05s.92-.03,1.28-.08c1.14-.16,1.96-1.08,1.96-2.2,0-.32-.07-.64-.21-.97l-4.28-11.13c-.38-1.04-1.29-1.67-2.42-1.67h0Z"/>
      </g>
      <g>
        <path class="cls-2" d="M383.56,84.09c-.22,0-.64,0-.95-.06l-.1-.02c-.98-.27-.98-1.05-.98-1.31v-11.21c0-.87.58-1.45,1.43-1.45h2.7c.48,0,1.08.09,1.48.83l2.97,6.19v-5.7c0-1.03.71-1.26,1.07-1.32.34-.06.75-.07.97-.07s.62,0,.95.07c.37.05,1.09.28,1.09,1.32v11.21c0,.87-.58,1.45-1.43,1.45h-2.7c-.48,0-1.09-.09-1.49-.83l-2.97-6.19v5.7c0,.25,0,1.03-.94,1.31l-.07.02h-.07c-.32.06-.74.07-.96.07Z"/>
        <path class="cls-1" d="M392.15,70.98c.3,0,.61.02.8.06.23.02.25.08.25.33v11.21c0,.33-.13.45-.43.45h-2.7c-.36,0-.47-.06-.6-.31l-4.32-9.01c-.08-.1-.08-.12-.21-.12h-.17c-.13,0-.15,0-.15.14v8.97c0,.24-.02.29-.23.35-.2.03-.51.05-.81.05s-.61-.02-.8-.05c-.23-.06-.25-.1-.25-.35v-11.21c0-.33.13-.45.43-.45h2.7c.36,0,.47.06.6.31l4.32,9.01c.08.1.08.12.21.12h.17c.13,0,.15,0,.15-.14v-8.97c0-.24.02-.31.23-.33.2-.04.5-.06.81-.06M392.15,68.98c-.31,0-.74.02-1.13.09-.91.14-1.9.81-1.9,2.3v1.3l-1.05-2.18-.02-.04-.02-.04c-.49-.9-1.28-1.35-2.36-1.35h-2.7c-1.41,0-2.43,1.03-2.43,2.45v11.21c0,1.15.63,1.98,1.72,2.28l.1.03.1.02c.37.06.81.07,1.12.07s.74-.01,1.11-.07l.13-.02.13-.04c.5-.15,1.66-.66,1.66-2.26v-1.3l1.05,2.18.02.04.02.04c.49.9,1.28,1.35,2.36,1.35h2.7c1.41,0,2.43-1.03,2.43-2.45v-11.21c0-1.5-1.01-2.17-1.92-2.3-.38-.07-.81-.09-1.12-.09h0Z"/>
      </g>
      <g>
        <path class="cls-2" d="M411.9,84.21c-4.97,0-7.49-2.42-7.49-7.18s2.49-7.16,7.21-7.16c1.53,0,2.91.19,4.1.58.4.14,1.02.51,1.02,1.46v2.9c0,.86-.55,1.24-1.09,1.31-.3.06-.65.09-1,.09s-.69-.03-.99-.09c-.55-.07-1.11-.45-1.11-1.31v-1.18c-.23-.03-.56-.05-1.02-.05-1.71,0-2.78.57-2.78,3.4,0,2.55.78,3.36,3.23,3.36.48,0,1.03-.06,1.68-.17l.64-.15c.2-.04.46-.12.64-.17l.02-.02.27-.08c.16-.05.31-.07.45-.07.65,0,1.14.47,1.19,1.15.08.45.1,1,.03,1.54-.04.38-.24.87-.9,1.11-1.22.47-2.6.71-4.09.71Z"/>
        <path class="cls-1" d="M411.61,70.88c1.45,0,2.72.18,3.79.53.23.08.32.2.32.51v2.9c0,.22-.04.31-.25.33-.25.05-.55.08-.84.08s-.59-.03-.84-.08c-.23-.02-.26-.1-.26-.33v-1.77c0-.12-.06-.2-.17-.24-.38-.14-1-.2-1.85-.2-2.62,0-3.78,1.41-3.78,4.4s1.21,4.36,4.23,4.36c.62,0,1.26-.08,1.85-.18l.7-.16c.38-.08.96-.27.98-.29.06-.02.12-.03.16-.03.11,0,.18.06.19.23.08.43.09.88.04,1.35-.02.16-.08.22-.25.29-1.11.43-2.38.65-3.76.65-4.32,0-6.49-1.83-6.49-6.18s2.04-6.16,6.21-6.16M411.61,68.88c-5.29,0-8.21,2.9-8.21,8.16,0,3.73,1.47,8.18,8.49,8.18,1.61,0,3.12-.26,4.47-.79.84-.31,1.41-1.01,1.51-1.92.07-.62.06-1.24-.04-1.86-.15-1.14-1.04-1.95-2.18-1.95-.24,0-.48.04-.73.11l-.53.16-.02.02c-.1.03-.21.06-.29.07l-.68.16c-.57.1-1.05.14-1.45.14-1.78,0-2.23-.23-2.23-2.36,0-2.4.74-2.4,1.78-2.4h.02v.22c0,1.23.78,2.14,1.96,2.3.36.07.75.1,1.15.1s.8-.04,1.16-.1c.98-.15,1.92-.9,1.92-2.3v-2.9c0-1.13-.61-2.02-1.64-2.39h-.03s-.03-.02-.03-.02c-1.29-.42-2.77-.63-4.41-.63h0Z"/>
      </g>
      <g>
        <path class="cls-2" d="M428.75,84.03c-.86,0-1.43-.58-1.43-1.45v-11.09c0-.87.58-1.45,1.43-1.45h8.21c.7,0,1.19.44,1.26,1.12.07.44.07,1.12,0,1.61-.07.63-.56,1.06-1.25,1.06h-5.34v1.14h3.15c.68,0,1.17.44,1.24,1.12.09.42.09,1.14-.01,1.66-.06.58-.55,1.01-1.23,1.01h-3.15v1.46h5.61c.67,0,1.16.43,1.24,1.08.09.44.09,1.16-.01,1.68-.06.59-.55,1.03-1.23,1.03h-8.47Z"/>
        <path class="cls-1" d="M436.96,71.04c.17,0,.25.04.26.22.06.39.06.98,0,1.37-.02.16-.09.2-.26.2h-6.13c-.13,0-.21.08-.21.22v2.69c0,.14.08.22.21.22h3.94c.15,0,.23.04.25.22.08.39.08.98,0,1.37-.02.16-.09.2-.25.2h-3.94c-.13,0-.21.08-.21.22v3.02c0,.14.08.22.21.22h6.4c.15,0,.23.04.25.2.08.39.08.98,0,1.37-.02.18-.09.22-.25.22h-8.47c-.3,0-.43-.12-.43-.45v-11.09c0-.33.13-.45.43-.45h8.21M436.96,69.04h-8.21c-1.41,0-2.43,1.03-2.43,2.45v11.09c0,1.42,1.02,2.45,2.43,2.45h8.47c1.16,0,2.06-.78,2.22-1.91.11-.61.11-1.4,0-2.01-.17-1.11-1.07-1.88-2.22-1.88h-.96c.38-.33.64-.8.73-1.35.11-.61.11-1.39,0-2-.06-.4-.21-.76-.43-1.05h.4c1.18,0,2.1-.79,2.25-1.94.08-.57.08-1.32,0-1.89-.14-1.16-1.06-1.97-2.25-1.97h0Z"/>
      </g>
    </g>
    <g>
      <rect class="cls-2" x="33.12" y="75.99" width="10.59" height="3.1"/>
      <path class="cls-1" d="M42.71,76.99v1.1h-8.59v-1.1h8.59M44.71,74.99h-12.59v5.1h12.59v-5.1h0Z"/>
    </g>
    <g>
      <rect class="cls-2" x="444.2" y="75.99" width="10.59" height="3.1"/>
      <path class="cls-1" d="M453.79,76.99v1.1h-8.59v-1.1h8.59M455.79,74.99h-12.59v5.1h12.59v-5.1h0Z"/>
    </g>
  </g>
</svg>